Coordinates
version=1
nRows=8
nColumns=36
inDegrees=yes

Units are S.I. units (second, meters, Newtons, ...)
If the header above contains a line with 'inDegrees', this indicates whether rotational values are in degrees (yes) or radians (no).

endheader
time	pelvis_tilt	pelvis_list	pelvis_rotation	pelvis_tx	pelvis_ty	pelvis_tz	hip_flexion_r	hip_adduction_r	hip_rotation_r	knee_angle_r	knee_angle_r_beta	ankle_angle_r	subtalar_angle_r	mtp_angle_r	hip_flexion_l	hip_adduction_l	hip_rotation_l	knee_angle_l	knee_angle_l_beta	ankle_angle_l	subtalar_angle_l	mtp_angle_l	lumbar_extension	lumbar_bending	lumbar_rotation	arm_flex_r	arm_add_r	arm_rot_r	elbow_flex_r	pro_sup_r	arm_flex_l	arm_add_l	arm_rot_l	elbow_flex_l	pro_sup_l
      0.00000000	     -5.20116692	      1.21434223	     10.98145720	     -0.14288967	      0.89701379	     -0.22935594	     34.60046437	     -6.50791514	     -4.25594069	     11.21502887	      0.19573918	     -1.42292009	    -10.45276752	     -4.67868405	    -13.81698509	      0.71548145	      1.32938538	     14.56312678	      0.25417451	     17.83576328	     14.32026114	     -4.67868405	     -3.82971741	      2.09938990	    -13.67276820	     -2.20691195	    -11.22498580	      9.12515043	     33.67859003	    101.52383822	     -0.99584377	     -6.94384972	      3.78989627	     36.57363537	     98.15991143
      0.01000000	     -5.31740938	      0.83480997	     10.80886457	     -0.13040025	      0.89529683	     -0.22884502	     35.02658761	     -5.94938036	     -3.84409808	     12.62479368	      0.22034422	     -3.84859242	    -12.09807696	     -4.81640015	    -14.03748641	      0.16038645	      1.34989849	     15.22701667	      0.26576158	     16.90767062	     13.99409876	     -4.81640015	     -3.52280061	      3.25614473	    -13.68207275	     -2.09690800	    -11.46152863	      9.09477748	     33.15689191	    101.97089669	     -1.14745602	     -6.77142493	      4.45749974	     35.90898427	     98.57904766
      0.02000000	     -5.28122891	      0.49126609	     10.60703414	     -0.11792202	      0.89382207	     -0.22842295	     35.39098521	     -5.47023701	     -3.82581482	     14.33361613	      0.25016880	     -5.03390878	    -12.27028616	     -4.83986609	    -14.44026092	     -0.35158382	      1.41818361	     15.84651701	      0.27657390	     16.07391000	     13.80583595	     -4.83986609	     -3.46033421	      4.43157215	    -13.72895506	     -1.95883751	    -11.70696452	      8.90034967	     32.89899291	    101.98353441	     -1.38516665	     -6.50336103	      4.59702226	     35.61322941	     98.62461668
      0.03000000	     -5.21831706	      0.08683329	     10.37726273	     -0.10567110	      0.89265124	     -0.22786493	     35.65995181	     -4.87152265	     -3.37951769	     15.97334237	      0.27878742	     -5.86078450	    -12.36240612	     -4.85035611	    -14.78241688	     -0.88888880	      1.84180479	     16.59145053	      0.28957544	     15.31385099	     13.68964159	     -4.85035611	     -3.54269393	      5.68988852	    -13.70957623	     -1.75412988	    -11.95157643	      8.75236585	     32.68552543	    101.96991554	     -1.51972209	     -6.23392286	      4.71853951	     35.39321664	     98.64204677
      0.04000000	     -5.23823885	     -0.34995039	     10.08857411	     -0.09337752	      0.89156187	     -0.22731793	     36.28082703	     -4.29403245	     -3.54353216	     18.16454735	      0.31703116	     -7.05133180	    -13.33679924	     -4.87793416	    -14.71282428	     -1.46037199	      1.51003443	     17.90161522	      0.31244213	     13.82058328	     12.81661662	     -4.87793416	     -3.44669239	      6.94737393	    -13.56502816	     -1.53328874	    -12.19897679	      8.49462756	     32.16461308	    101.94611437	     -1.60221835	     -5.90669373	      4.97960168	     34.83089953	     98.67556317
      0.05000000	     -5.41771662	     -0.79611363	      9.73238533	     -0.08133817	      0.89072848	     -0.22646210	     36.88705890	     -3.56805007	     -2.94981022	     20.03005032	      0.34959033	     -8.32102418	    -14.86075993	     -4.95126981	    -14.38546427	     -1.89169481	      1.88701106	     19.34524057	      0.33763814	     12.17124393	     11.23200600	     -4.95126981	     -3.27170199	      8.16968601	    -13.27704495	     -1.30575712	    -12.39802426	      8.20021118	     31.58482840	    101.96820775	     -1.52742790	     -5.66330274	      5.66983921	     34.03770354	     98.78609973
      0.06000000	     -5.12918611	     -1.26359908	      9.40330158	     -0.06942235	      0.89078844	     -0.22572308	     36.99276630	     -2.86584364	     -2.97648433	     22.03657813	      0.38461084	     -8.43212161	    -15.26698962	     -4.97384571	    -14.40629441	     -2.47762303	      1.91681822	     20.99008158	      0.36634603	     10.87431559	     10.60207168	     -4.97384571	     -3.76949528	      9.51641678	    -12.99960052	     -0.95606257	    -12.69774271	      8.07526532	     31.28539571	    101.96261016	     -1.47198270	     -5.41354654	      5.88745447	     33.79816010	     98.80157326
      0.07000000	     -5.12991757	     -1.69758629	      9.08557521	     -0.05767211	      0.89089513	     -0.22484377	     37.25610424	     -2.20273887	     -2.85601114	     23.80504323	      0.41547638	     -8.25742789	    -15.58938929	     -5.03928654	    -13.87279752	     -2.92499857	      2.13620628	     23.02226707	      0.40181436	      8.97068425	      9.01727543	     -5.03928654	     -3.90752721	     10.72539799	    -12.71181752	     -0.59681503	    -12.92733301	      7.99358991	     30.75005794	    102.00385635	     -1.38183296	     -5.21347253	      6.51252016	     33.29061435	     98.82870461
